<svg width="419" height="419" viewBox="0 0 419 419" fill="none" xmlns="http://www.w3.org/2000/svg">
<circle cx="209.5" cy="209.5" r="209.5" fill="#78ACC9"/>
<mask id="mask0_157_486" style="mask-type:alpha" maskUnits="userSpaceOnUse" x="0" y="0" width="419" height="419">
<circle cx="209.5" cy="209.5" r="209.5" fill="#FFEDEF"/>
</mask>
<g mask="url(#mask0_157_486)">
<g clip-path="url(#clip0_157_486)">
<path d="M269.043 399.705C253.165 377.652 240.742 335.017 239.272 313.699L163.741 281.171L132.316 399.705H269.043Z" fill="#F9C9B6" stroke="black" stroke-width="4.41053"/>
<mask id="mask1_157_486" style="mask-type:alpha" maskUnits="userSpaceOnUse" x="132" y="281" width="138" height="130">
<path d="M269.043 410.731C253.165 388.678 240.742 335.017 239.272 313.699L163.741 281.171L132.316 410.731H269.043Z" fill="#F9C9B6"/>
</mask>
<g mask="url(#mask1_157_486)">
<g style="mix-blend-mode:multiply">
<ellipse cx="235.963" cy="278.966" rx="65.0553" ry="59.5421" fill="black"/>
</g>
</g>
<mask id="path-6-inside-1_157_486" fill="white">
<path fill-rule="evenodd" clip-rule="evenodd" d="M301.997 213.819C301.967 213.691 301.937 213.564 301.906 213.437C301.876 213.309 301.845 213.182 301.814 213.055L283.735 137.596C283.717 137.52 283.699 137.445 283.681 137.369C283.663 137.294 283.645 137.218 283.626 137.143L283.547 136.81L283.545 136.811C272.278 91.1123 226.214 63.0133 180.373 73.9964C134.532 84.9795 106.203 130.903 116.868 176.745L116.866 176.745L135.601 254.942L135.617 254.938C147.308 300.041 193.031 327.647 238.534 316.744C284.037 305.842 312.286 260.513 302.268 215.01L302.282 215.006L301.997 213.819Z"/>
</mask>
<path fill-rule="evenodd" clip-rule="evenodd" d="M301.997 213.819C301.967 213.691 301.937 213.564 301.906 213.437C301.876 213.309 301.845 213.182 301.814 213.055L283.735 137.596C283.717 137.52 283.699 137.445 283.681 137.369C283.663 137.294 283.645 137.218 283.626 137.143L283.547 136.81L283.545 136.811C272.278 91.1123 226.214 63.0133 180.373 73.9964C134.532 84.9795 106.203 130.903 116.868 176.745L116.866 176.745L135.601 254.942L135.617 254.938C147.308 300.041 193.031 327.647 238.534 316.744C284.037 305.842 312.286 260.513 302.268 215.01L302.282 215.006L301.997 213.819Z" fill="#F9C9B6"/>
<path d="M301.997 213.819L297.703 214.827L297.706 214.837L297.708 214.847L301.997 213.819ZM301.906 213.437L297.617 214.464L297.617 214.464L301.906 213.437ZM301.814 213.055L297.525 214.082L297.527 214.092L297.53 214.102L301.814 213.055ZM283.735 137.596L279.443 138.611L279.446 138.623L283.735 137.596ZM283.681 137.369L287.97 136.342L287.97 136.342L283.681 137.369ZM283.626 137.143L279.337 138.17L279.34 138.182L283.626 137.143ZM283.547 136.81L287.836 135.783L286.81 131.501L282.527 132.519L283.547 136.81ZM283.545 136.811L279.263 137.866L280.31 142.113L284.565 141.102L283.545 136.811ZM180.373 73.9964L179.345 69.7073L180.373 73.9964ZM116.868 176.745L117.894 181.034L122.157 180.015L121.164 175.745L116.868 176.745ZM116.866 176.745L115.84 172.456L111.549 173.482L112.577 177.773L116.866 176.745ZM135.601 254.942L131.312 255.969L132.34 260.258L136.629 259.231L135.601 254.942ZM135.617 254.938L139.886 253.831L138.8 249.64L134.589 250.649L135.617 254.938ZM238.534 316.744L237.506 312.455L237.506 312.455L238.534 316.744ZM302.268 215.01L301.24 210.721L297.03 211.73L297.961 215.958L302.268 215.01ZM302.282 215.006L303.31 219.296L307.598 218.268L306.571 213.979L302.282 215.006ZM306.291 212.811C306.26 212.677 306.228 212.543 306.196 212.409L297.617 214.464C297.646 214.585 297.675 214.706 297.703 214.827L306.291 212.811ZM306.196 212.409C306.164 212.275 306.131 212.141 306.099 212.008L297.53 214.102C297.559 214.223 297.588 214.343 297.617 214.464L306.196 212.409ZM279.446 138.623L297.525 214.082L306.103 212.027L288.024 136.568L279.446 138.623ZM288.027 136.58C288.008 136.5 287.989 136.42 287.97 136.342L279.392 138.396C279.409 138.469 279.426 138.54 279.443 138.611L288.027 136.58ZM287.97 136.342C287.951 136.262 287.932 136.183 287.913 136.103L279.34 138.182C279.357 138.253 279.374 138.325 279.392 138.397L287.97 136.342ZM279.257 137.838L279.337 138.17L287.915 136.115L287.836 135.783L279.257 137.838ZM284.565 141.102L284.566 141.101L282.527 132.519L282.525 132.52L284.565 141.102ZM287.827 135.755C275.981 87.704 227.546 58.1589 179.345 69.7073L181.401 78.2856C224.882 67.8677 268.576 94.5206 279.263 137.866L287.827 135.755ZM179.345 69.7073C131.145 81.2557 101.358 129.542 112.572 177.744L121.164 175.745C111.048 132.263 137.919 88.7034 181.401 78.2856L179.345 69.7073ZM117.892 181.035L117.894 181.034L115.842 172.455L115.84 172.456L117.892 181.035ZM139.89 253.914L121.155 175.718L112.577 177.773L131.312 255.969L139.89 253.914ZM134.589 250.649L134.574 250.652L136.629 259.231L136.644 259.227L134.589 250.649ZM131.347 256.045C143.64 303.47 191.716 332.497 239.562 321.034L237.506 312.455C194.345 322.796 150.975 296.611 139.886 253.831L131.347 256.045ZM239.562 321.034C287.407 309.57 317.109 261.909 306.575 214.061L297.961 215.958C307.462 259.118 280.667 302.114 237.506 312.455L239.562 321.034ZM301.254 210.717L301.24 210.721L303.296 219.299L303.31 219.296L301.254 210.717ZM297.708 214.847L297.993 216.034L306.571 213.979L306.286 212.791L297.708 214.847Z" fill="black" mask="url(#path-6-inside-1_157_486)"/>
</g>
<path d="M237.936 284.075C249.885 281.912 256.886 268.708 254.451 255.255C252.016 241.801 240.832 231.888 228.883 234.05C216.933 236.213 209.933 249.417 212.367 262.871C214.802 276.324 225.986 286.237 237.936 284.075Z" fill="black" stroke="black" stroke-width="3.95972"/>
<mask id="mask2_157_486" style="mask-type:alpha" maskUnits="userSpaceOnUse" x="213" y="235" width="40" height="48">
<ellipse cx="233.409" cy="259.063" rx="19.4036" ry="23.4387" transform="rotate(-10.2582 233.409 259.063)" fill="#171921"/>
</mask>
<g mask="url(#mask2_157_486)">
<ellipse cx="237.004" cy="278.923" rx="22.2783" ry="20.1833" transform="rotate(-10.2582 237.004 278.923)" fill="#FC909F"/>
</g>
<circle cx="184.477" cy="175.119" r="13.2316" transform="rotate(-6.27568 184.477 175.119)" fill="#D2EFF3"/>
<ellipse cx="185.899" cy="185.223" rx="9.92368" ry="14.8855" transform="rotate(-6.77646 185.899 185.223)" fill="black"/>
<circle cx="254.802" cy="165.606" r="13.2316" transform="rotate(-6.27568 254.802 165.606)" fill="#D2EFF3"/>
<ellipse cx="256.468" cy="174.197" rx="9.92368" ry="14.8855" transform="rotate(-6.27568 256.468 174.197)" fill="black"/>
<path d="M241.477 145.784C247.725 142.844 262.427 140.161 271.248 152.951" stroke="black" stroke-width="4.41053" stroke-linecap="round"/>
<path d="M158.315 173.688C160.599 167.171 168.991 154.805 184.296 157.481" stroke="black" stroke-width="4.41053" stroke-linecap="round"/>
<path d="M161.067 167.003L154.287 161.019" stroke="black" stroke-width="4.41053" stroke-linecap="round"/>
<path d="M267.897 146.823L274.677 140.84" stroke="black" stroke-width="4.41053" stroke-linecap="round"/>
<path d="M168.178 160.78L163.716 152.915" stroke="black" stroke-width="4.41053" stroke-linecap="round"/>
<path d="M259.683 142.806L264.146 134.941" stroke="black" stroke-width="4.41053" stroke-linecap="round"/>
<path d="M177.082 156.795L174.655 148.084" stroke="black" stroke-width="4.41053" stroke-linecap="round"/>
<path d="M249.676 142.129L252.103 133.419" stroke="black" stroke-width="4.41053" stroke-linecap="round"/>
<path d="M181.438 131.853C183.52 132.182 183.519 132.183 183.519 132.185L183.518 132.188L183.517 132.197L183.514 132.217C183.511 132.232 183.508 132.251 183.504 132.273C183.496 132.317 183.485 132.374 183.47 132.445C183.441 132.586 183.397 132.781 183.333 133.027C183.205 133.52 182.998 134.219 182.67 135.115C182.015 136.907 180.878 139.48 178.929 142.749C175.434 148.612 169.335 156.706 158.734 166.553C191.78 167.377 219.383 156.731 239.029 145.567C249.35 139.702 257.456 133.704 262.974 129.179C265.733 126.917 267.843 125.025 269.257 123.705C269.964 123.044 270.498 122.527 270.851 122.178C271.028 122.003 271.16 121.871 271.246 121.783C271.289 121.74 271.32 121.707 271.341 121.687L271.362 121.664L271.366 121.66L271.366 121.66L271.367 121.659L273.882 119.042L274.907 122.526L272.885 123.12C274.907 122.526 274.907 122.526 274.907 122.527L274.908 122.529L274.91 122.539L274.921 122.576L274.964 122.722L275.132 123.296C275.28 123.799 275.496 124.541 275.773 125.493C276.327 127.399 277.123 130.15 278.093 133.535C280.033 140.303 282.667 149.605 285.444 159.74C290.987 179.969 297.136 203.639 299.44 217.043C303.291 239.446 297.336 256.456 293.814 266.518C293.129 268.474 292.536 270.167 292.125 271.586C292.184 271.636 292.261 271.696 292.362 271.768C293.02 272.234 294.188 272.772 295.875 273.309C299.2 274.366 303.945 275.232 309.021 275.721C314.086 276.208 319.36 276.308 323.727 275.881C325.912 275.668 327.813 275.329 329.323 274.867C330.774 274.424 331.682 273.922 332.173 273.469C332.188 273.375 332.207 273.148 332.152 272.711C332.044 271.855 331.706 270.651 331.119 269.057C330.244 266.679 328.948 263.768 327.433 260.364C326.919 259.209 326.379 257.998 325.823 256.731C321.49 246.874 316.278 234.056 315.142 220.997C313.88 206.486 316.748 194.075 319.325 182.92L319.448 182.388C322.081 170.987 324.271 161.086 322.022 151.053C318.609 135.825 313.953 123.147 306.801 114.038C299.726 105.025 290.13 99.3995 276.484 98.3652L275.074 98.2584L274.639 96.9138C268.36 77.5403 259.883 64.8811 249.073 57.0311C238.267 49.1839 224.864 45.9488 208.343 45.9488C177.814 45.9488 144.938 57.5476 120.267 77.6144C95.6221 97.6603 79.3119 126.015 81.4459 159.577C83.8011 196.616 81.1169 224.7 75.0636 245.265C69.5438 264.017 61.178 276.652 51.1503 284.022C52.466 284.694 54.2199 285.547 56.411 286.524C61.9537 288.995 70.2938 292.256 81.4115 295.375C102.731 301.357 134.278 306.82 175.92 305.174C166.741 297.29 157.479 287.722 150.147 277.609C141.73 266.001 135.663 253.414 135.486 241.69C135.275 227.767 136.218 191.336 136.51 183.794C137.187 166.266 148.441 152.756 159.155 143.769C164.543 139.249 169.881 135.8 173.869 133.48C175.865 132.319 177.528 131.438 178.698 130.844C179.283 130.548 179.745 130.323 180.064 130.17C180.223 130.094 180.347 130.036 180.432 129.997C180.459 129.984 180.482 129.974 180.501 129.965L180.532 129.951L180.559 129.938L180.567 129.935L180.57 129.933C180.571 129.933 180.572 129.933 181.438 131.853ZM181.438 131.853L183.52 132.182L184.127 128.329L180.572 129.933L181.438 131.853ZM291.956 271.412C291.959 271.412 291.972 271.427 291.987 271.456C291.961 271.427 291.953 271.412 291.956 271.412Z" fill="#D2EFF3" stroke="black" stroke-width="4.21408"/>
<path d="M275.658 98.1338C276.209 103.096 275.327 113.019 274.004 119.635" stroke="black" stroke-width="4.41053"/>
<path d="M224.938 190.714C225.162 194.951 226.81 204.036 231.608 206.479C237.604 209.534 232.903 219.659 221.677 219.009" stroke="black" stroke-width="4.41053"/>
<path d="M144.444 200.954V199.72L143.392 199.074C139.275 196.548 134.269 195.166 129.096 195.166C122.877 195.166 117.054 197.093 112.907 201.004C108.713 204.96 106.45 210.743 107.051 217.953C107.636 224.979 109.995 230.149 113.907 233.585C113.585 234.687 113.491 235.875 113.639 237.125C114.069 240.728 115.891 243.325 118.706 244.925C121.39 246.45 124.824 246.989 128.483 246.989C134.524 246.989 139.822 243.74 143.856 239.394L144.444 238.759V237.893V200.954Z" stroke="black" stroke-width="4.41053"/>
<path fill-rule="evenodd" clip-rule="evenodd" d="M151.03 218.303C151.109 217.585 151.149 216.855 151.149 216.116C151.149 204.85 140.667 197.371 129.097 197.371C117.526 197.371 108.147 204.538 109.249 217.77C109.863 225.133 112.498 229.978 116.583 232.895C115.934 234.024 115.65 235.35 115.83 236.864C116.524 242.688 121.495 244.784 128.484 244.784C140.729 244.784 150.417 229.296 151.03 218.303Z" fill="#F9C9B6"/>
<path d="M133.97 206.744C129.56 204.723 119.857 203.657 116.328 215.565" stroke="black" stroke-width="4.41053"/>
<path d="M122.393 207.295C124.782 209.316 129.339 215.565 128.457 224.386" stroke="black" stroke-width="4.41053"/>
<circle cx="126.803" cy="238.168" r="4.41053" fill="white"/>
<circle cx="127.905" cy="237.066" r="1.10263" fill="#FFEDEF"/>
<path d="M209.247 396.482C209.247 396.482 209.247 396.482 210.602 394.742L209.247 396.482L211.146 397.96L212.453 395.941L212.453 395.94L212.456 395.937L212.466 395.921L212.511 395.852C212.552 395.79 212.614 395.696 212.697 395.572C212.863 395.324 213.111 394.957 213.436 394.488C214.085 393.55 215.038 392.208 216.246 390.603C218.664 387.389 222.087 383.144 226.118 378.994C230.159 374.833 234.747 370.834 239.489 368.051C244.248 365.257 248.948 363.812 253.31 364.4C300.105 370.71 334.54 391.436 356.893 422.308H55.5443C73.5168 389.955 99.0798 369.362 140.524 359.913C142.29 359.51 144.692 359.632 147.694 360.33C150.666 361.022 154.053 362.236 157.707 363.842C165.014 367.053 173.171 371.737 180.836 376.589C188.489 381.433 195.596 386.409 200.793 390.177C203.39 392.06 205.507 393.639 206.974 394.746C207.707 395.299 208.277 395.735 208.663 396.031C208.856 396.179 209.003 396.293 209.102 396.369L209.212 396.454L209.239 396.475L209.246 396.48L209.247 396.482Z" fill="#9287FF" stroke="black" stroke-width="4.41053"/>
<path d="M127.478 362.86L133.175 341.654C133.406 340.795 134.517 340.553 135.117 341.209C151.505 359.143 172.187 358.44 179.051 357.617C179.983 357.505 180.712 358.525 180.275 359.355L165.767 386.869C165.545 387.29 165.09 387.522 164.623 387.425C160.269 386.518 138.576 381.216 127.606 363.722C127.445 363.466 127.4 363.152 127.478 362.86Z" fill="#E0DDFF" stroke="black" stroke-width="4.41053"/>
<path d="M271.462 362.746L258.693 341.264C258.259 340.534 257.191 340.546 256.729 341.258C250.403 351.001 239.493 355.489 235.678 356.814C234.992 357.053 234.678 357.869 235.048 358.494L249.936 383.65C250.158 384.025 250.578 384.229 250.998 384.109C253.352 383.439 261.429 380.061 271.448 363.892C271.663 363.544 271.671 363.097 271.462 362.746Z" fill="#E0DDFF" stroke="black" stroke-width="4.41053"/>
<path d="M190.204 382.062L180.28 358.355L172.562 374.895L190.204 382.062Z" fill="black" stroke="black" stroke-width="4.41053" stroke-linejoin="round"/>
<path d="M224.937 380.96L234.861 357.253L242.579 373.792L224.937 380.96Z" fill="black" stroke="black" stroke-width="4.41053" stroke-linejoin="round"/>
<path d="M147.201 337.406L133.97 340.714L144.996 347.881L147.201 337.406Z" fill="black" stroke="black" stroke-width="4.41053" stroke-linejoin="round"/>
<path d="M245.887 337.406L258.016 340.714L250.297 347.881L245.887 337.406Z" fill="black" stroke="black" stroke-width="4.41053" stroke-linejoin="round"/>
</g>
<defs>
<clipPath id="clip0_157_486">
<rect width="220.526" height="352.842" fill="white" transform="translate(99.2373 47.4136)"/>
</clipPath>
</defs>
</svg>
