<svg width="419" height="419" viewBox="0 0 419 419" fill="none" xmlns="http://www.w3.org/2000/svg">
<circle cx="209.5" cy="209.5" r="209.5" fill="#5DAFEB"/>
<mask id="mask0_157_618" style="mask-type:alpha" maskUnits="userSpaceOnUse" x="0" y="0" width="419" height="419">
<path d="M419 209.5C419 325.204 325.204 419 209.5 419C93.7963 419 0 325.204 0 209.5C0 93.7963 93.7963 0 209.5 0C325.204 0 419 93.7963 419 209.5Z" fill="#FFEDEF"/>
</mask>
<g mask="url(#mask0_157_618)">
<g clip-path="url(#clip0_157_618)">
<path d="M269.043 399.704C253.165 377.652 240.742 335.016 239.272 313.699L163.741 281.171L132.316 399.704H269.043Z" fill="#F9C9B6" stroke="black" stroke-width="4.41053"/>
<mask id="mask1_157_618" style="mask-type:alpha" maskUnits="userSpaceOnUse" x="132" y="281" width="138" height="130">
<path d="M269.043 410.731C253.165 388.678 240.742 335.016 239.272 313.699L163.741 281.171L132.316 410.731H269.043Z" fill="#AC6651"/>
</mask>
<g mask="url(#mask1_157_618)">
<g style="mix-blend-mode:multiply">
<ellipse cx="235.963" cy="278.966" rx="65.0553" ry="59.5421" fill="black"/>
</g>
</g>
<mask id="path-6-inside-1_157_618" fill="white">
<path fill-rule="evenodd" clip-rule="evenodd" d="M301.997 213.818C301.967 213.691 301.937 213.564 301.906 213.436C301.875 213.309 301.845 213.181 301.814 213.054L283.734 137.595C283.716 137.52 283.698 137.444 283.68 137.369C283.662 137.293 283.644 137.218 283.626 137.142L283.546 136.81L283.545 136.81C272.278 91.1118 226.214 63.0128 180.372 73.9959C134.531 84.9791 106.202 130.902 116.868 176.744L116.866 176.745L135.601 254.941L135.616 254.938C147.307 300.04 193.03 327.646 238.533 316.744C284.037 305.842 312.285 260.513 302.268 215.009L302.281 215.006L301.997 213.818Z"/>
</mask>
<path fill-rule="evenodd" clip-rule="evenodd" d="M301.997 213.818C301.967 213.691 301.937 213.564 301.906 213.436C301.875 213.309 301.845 213.181 301.814 213.054L283.734 137.595C283.716 137.52 283.698 137.444 283.68 137.369C283.662 137.293 283.644 137.218 283.626 137.142L283.546 136.81L283.545 136.81C272.278 91.1118 226.214 63.0128 180.372 73.9959C134.531 84.9791 106.202 130.902 116.868 176.744L116.866 176.745L135.601 254.941L135.616 254.938C147.307 300.04 193.03 327.646 238.533 316.744C284.037 305.842 312.285 260.513 302.268 215.009L302.281 215.006L301.997 213.818Z" fill="#F9C9B6"/>
<path d="M301.997 213.818L297.703 214.827L297.705 214.836L297.708 214.846L301.997 213.818ZM301.906 213.436L297.617 214.464L297.617 214.464L301.906 213.436ZM301.814 213.054L297.524 214.082L297.527 214.092L297.529 214.101L301.814 213.054ZM283.734 137.595L279.442 138.611L279.445 138.623L283.734 137.595ZM283.68 137.369L287.969 136.341L287.969 136.341L283.68 137.369ZM283.626 137.142L279.337 138.17L279.339 138.182L283.626 137.142ZM283.546 136.81L287.835 135.782L286.809 131.501L282.526 132.519L283.546 136.81ZM283.545 136.81L279.262 137.866L280.309 142.112L284.564 141.101L283.545 136.81ZM180.372 73.9959L179.345 69.7068L180.372 73.9959ZM116.868 176.744L117.894 181.034L122.157 180.014L121.164 175.745L116.868 176.744ZM116.866 176.745L115.839 172.455L111.548 173.482L112.576 177.773L116.866 176.745ZM135.601 254.941L131.312 255.969L132.339 260.258L136.628 259.23L135.601 254.941ZM135.616 254.938L139.886 253.831L138.799 249.64L134.589 250.648L135.616 254.938ZM238.533 316.744L237.506 312.455L237.506 312.455L238.533 316.744ZM302.268 215.009L301.24 210.72L297.029 211.729L297.96 215.958L302.268 215.009ZM302.281 215.006L303.309 219.295L307.598 218.267L306.57 213.978L302.281 215.006ZM306.29 212.81C306.259 212.677 306.227 212.543 306.195 212.408L297.617 214.464C297.646 214.585 297.674 214.705 297.703 214.827L306.29 212.81ZM306.195 212.408C306.163 212.274 306.131 212.141 306.098 212.007L297.529 214.101C297.559 214.222 297.588 214.343 297.617 214.464L306.195 212.408ZM279.445 138.623L297.524 214.082L306.103 212.027L288.023 136.567L279.445 138.623ZM288.026 136.579C288.007 136.499 287.988 136.42 287.969 136.341L279.391 138.396C279.408 138.468 279.425 138.54 279.442 138.611L288.026 136.579ZM287.969 136.341C287.95 136.262 287.931 136.183 287.912 136.103L279.339 138.182C279.357 138.253 279.374 138.324 279.391 138.396L287.969 136.341ZM279.257 137.837L279.337 138.17L287.915 136.115L287.835 135.782L279.257 137.837ZM284.564 141.101L284.566 141.101L282.526 132.519L282.525 132.519L284.564 141.101ZM287.827 135.754C275.98 87.7035 227.545 58.1584 179.345 69.7068L181.4 78.2851C224.882 67.8672 268.575 94.5201 279.262 137.866L287.827 135.754ZM179.345 69.7068C131.144 81.2552 101.357 129.542 112.572 177.744L121.164 175.745C111.047 132.263 137.918 88.7029 181.4 78.2851L179.345 69.7068ZM117.892 181.034L117.894 181.034L115.842 172.455L115.839 172.455L117.892 181.034ZM139.89 253.914L121.155 175.717L112.576 177.773L131.312 255.969L139.89 253.914ZM134.589 250.648L134.573 250.652L136.628 259.23L136.643 259.227L134.589 250.648ZM131.347 256.044C143.64 303.47 191.716 332.496 239.561 321.033L237.506 312.455C194.345 322.796 150.974 296.611 139.886 253.831L131.347 256.044ZM239.561 321.033C287.406 309.57 317.108 261.908 306.575 214.061L297.96 215.958C307.462 259.118 280.667 302.114 237.506 312.455L239.561 321.033ZM301.253 210.717L301.24 210.72L303.295 219.298L303.309 219.295L301.253 210.717ZM297.708 214.846L297.992 216.034L306.57 213.978L306.286 212.791L297.708 214.846Z" fill="black" mask="url(#path-6-inside-1_157_618)"/>
<path d="M170.908 280.399C170.908 281.008 170.415 281.502 169.806 281.502C169.197 281.502 168.703 281.008 168.703 280.399C168.703 279.79 169.197 279.296 169.806 279.296C170.415 279.296 170.908 279.79 170.908 280.399Z" fill="black"/>
<path d="M228.245 288.117C228.245 288.726 227.752 289.22 227.143 289.22C226.534 289.22 226.04 288.726 226.04 288.117C226.04 287.508 226.534 287.015 227.143 287.015C227.752 287.015 228.245 287.508 228.245 288.117Z" fill="black"/>
<path d="M223.835 295.836C223.835 296.445 223.341 296.938 222.732 296.938C222.123 296.938 221.629 296.445 221.629 295.836C221.629 295.227 222.123 294.733 222.732 294.733C223.341 294.733 223.835 295.227 223.835 295.836Z" fill="black"/>
<path d="M245.887 293.631C245.887 294.24 245.394 294.733 244.785 294.733C244.176 294.733 243.682 294.24 243.682 293.631C243.682 293.022 244.176 292.528 244.785 292.528C245.394 292.528 245.887 293.022 245.887 293.631Z" fill="black"/>
<path d="M246.99 282.604C246.99 283.213 246.496 283.707 245.887 283.707C245.278 283.707 244.785 283.213 244.785 282.604C244.785 281.995 245.278 281.502 245.887 281.502C246.496 281.502 246.99 281.995 246.99 282.604Z" fill="black"/>
<path d="M269.043 288.117C269.043 288.726 268.549 289.22 267.94 289.22C267.331 289.22 266.837 288.726 266.837 288.117C266.837 287.508 267.331 287.015 267.94 287.015C268.549 287.015 269.043 287.508 269.043 288.117Z" fill="black"/>
<path d="M280.069 272.681C280.069 273.29 279.575 273.783 278.966 273.783C278.357 273.783 277.864 273.29 277.864 272.681C277.864 272.072 278.357 271.578 278.966 271.578C279.575 271.578 280.069 272.072 280.069 272.681Z" fill="black"/>
<path d="M159.882 257.244C159.882 257.853 159.388 258.346 158.779 258.346C158.17 258.346 157.677 257.853 157.677 257.244C157.677 256.635 158.17 256.141 158.779 256.141C159.388 256.141 159.882 256.635 159.882 257.244Z" fill="black"/>
<path d="M196.269 274.886C196.269 275.495 195.775 275.988 195.166 275.988C194.557 275.988 194.064 275.495 194.064 274.886C194.064 274.277 194.557 273.783 195.166 273.783C195.775 273.783 196.269 274.277 196.269 274.886Z" fill="black"/>
<path d="M192.961 296.938C192.961 297.547 192.467 298.041 191.858 298.041C191.249 298.041 190.756 297.547 190.756 296.938C190.756 296.329 191.249 295.836 191.858 295.836C192.467 295.836 192.961 296.329 192.961 296.938Z" fill="black"/>
<path d="M212.808 301.349C212.808 301.958 212.315 302.452 211.706 302.452C211.097 302.452 210.603 301.958 210.603 301.349C210.603 300.74 211.097 300.246 211.706 300.246C212.315 300.246 212.808 300.74 212.808 301.349Z" fill="black"/>
<path d="M250.298 272.681C250.298 273.29 249.804 273.783 249.195 273.783C248.586 273.783 248.093 273.29 248.093 272.681C248.093 272.072 248.586 271.578 249.195 271.578C249.804 271.578 250.298 272.072 250.298 272.681Z" fill="black"/>
<path d="M265.735 277.091C265.735 277.7 265.241 278.194 264.632 278.194C264.023 278.194 263.529 277.7 263.529 277.091C263.529 276.482 264.023 275.988 264.632 275.988C265.241 275.988 265.735 276.482 265.735 277.091Z" fill="black"/>
<path d="M256.914 295.836C256.914 296.445 256.42 296.938 255.811 296.938C255.202 296.938 254.708 296.445 254.708 295.836C254.708 295.227 255.202 294.733 255.811 294.733C256.42 294.733 256.914 295.227 256.914 295.836Z" fill="black"/>
<path d="M272.35 261.654C272.35 262.263 271.857 262.757 271.248 262.757C270.639 262.757 270.145 262.263 270.145 261.654C270.145 261.045 270.639 260.552 271.248 260.552C271.857 260.552 272.35 261.045 272.35 261.654Z" fill="black"/>
<path d="M169.806 263.859C169.806 264.468 169.312 264.962 168.703 264.962C168.094 264.962 167.6 264.468 167.6 263.859C167.6 263.251 168.094 262.757 168.703 262.757C169.312 262.757 169.806 263.251 169.806 263.859Z" fill="black"/>
<path d="M196.269 263.859C196.269 264.468 195.775 264.962 195.166 264.962C194.557 264.962 194.064 264.468 194.064 263.859C194.064 263.251 194.557 262.757 195.166 262.757C195.775 262.757 196.269 263.251 196.269 263.859Z" fill="black"/>
<path d="M196.269 244.012C196.269 244.621 195.775 245.115 195.166 245.115C194.557 245.115 194.064 244.621 194.064 244.012C194.064 243.403 194.557 242.909 195.166 242.909C195.775 242.909 196.269 243.403 196.269 244.012Z" fill="black"/>
<path d="M200.679 303.554C200.679 304.163 200.186 304.657 199.577 304.657C198.968 304.657 198.474 304.163 198.474 303.554C198.474 302.945 198.968 302.452 199.577 302.452C200.186 302.452 200.679 302.945 200.679 303.554Z" fill="black"/>
<path d="M230.45 303.554C230.45 304.163 229.957 304.657 229.348 304.657C228.739 304.657 228.245 304.163 228.245 303.554C228.245 302.945 228.739 302.452 229.348 302.452C229.957 302.452 230.45 302.945 230.45 303.554Z" fill="black"/>
<path d="M242.579 303.554C242.579 304.163 242.086 304.657 241.477 304.657C240.868 304.657 240.374 304.163 240.374 303.554C240.374 302.945 240.868 302.452 241.477 302.452C242.086 302.452 242.579 302.945 242.579 303.554Z" fill="black"/>
<path d="M261.324 263.859C261.324 264.468 260.83 264.962 260.222 264.962C259.613 264.962 259.119 264.468 259.119 263.859C259.119 263.251 259.613 262.757 260.222 262.757C260.83 262.757 261.324 263.251 261.324 263.859Z" fill="black"/>
<path d="M261.324 244.012C261.324 244.621 260.83 245.115 260.222 245.115C259.613 245.115 259.119 244.621 259.119 244.012C259.119 243.403 259.613 242.909 260.222 242.909C260.83 242.909 261.324 243.403 261.324 244.012Z" fill="black"/>
<path d="M283.377 258.346C283.377 258.955 282.883 259.449 282.274 259.449C281.665 259.449 281.172 258.955 281.172 258.346C281.172 257.737 281.665 257.244 282.274 257.244C282.883 257.244 283.377 257.737 283.377 258.346Z" fill="black"/>
<path d="M173.114 249.525C173.114 250.134 172.62 250.628 172.011 250.628C171.402 250.628 170.908 250.134 170.908 249.525C170.908 248.916 171.402 248.423 172.011 248.423C172.62 248.423 173.114 248.916 173.114 249.525Z" fill="black"/>
<path d="M184.14 288.117C184.14 288.726 183.646 289.22 183.037 289.22C182.428 289.22 181.935 288.726 181.935 288.117C181.935 287.508 182.428 287.015 183.037 287.015C183.646 287.015 184.14 287.508 184.14 288.117Z" fill="black"/>
<path d="M179.729 295.836C179.729 296.445 179.236 296.938 178.627 296.938C178.018 296.938 177.524 296.445 177.524 295.836C177.524 295.227 178.018 294.733 178.627 294.733C179.236 294.733 179.729 295.227 179.729 295.836Z" fill="black"/>
<path d="M223.835 273.783C223.835 274.392 223.341 274.886 222.732 274.886C222.123 274.886 221.629 274.392 221.629 273.783C221.629 273.174 222.123 272.681 222.732 272.681C223.341 272.681 223.835 273.174 223.835 273.783Z" fill="black"/>
<path d="M237.066 275.988C237.066 276.597 236.573 277.091 235.964 277.091C235.355 277.091 234.861 276.597 234.861 275.988C234.861 275.379 235.355 274.886 235.964 274.886C236.573 274.886 237.066 275.379 237.066 275.988Z" fill="black"/>
<path d="M221.629 309.067C221.629 309.676 221.136 310.17 220.527 310.17C219.918 310.17 219.424 309.676 219.424 309.067C219.424 308.458 219.918 307.965 220.527 307.965C221.136 307.965 221.629 308.458 221.629 309.067Z" fill="black"/>
<path d="M246.99 252.833C246.99 253.442 246.496 253.936 245.887 253.936C245.278 253.936 244.785 253.442 244.785 252.833C244.785 252.224 245.278 251.731 245.887 251.731C246.496 251.731 246.99 252.224 246.99 252.833Z" fill="black"/>
<path d="M246.99 232.986C246.99 233.595 246.496 234.088 245.887 234.088C245.278 234.088 244.785 233.595 244.785 232.986C244.785 232.377 245.278 231.883 245.887 231.883C246.496 231.883 246.99 232.377 246.99 232.986Z" fill="black"/>
<path d="M273.453 249.525C273.453 250.134 272.959 250.628 272.35 250.628C271.741 250.628 271.248 250.134 271.248 249.525C271.248 248.916 271.741 248.423 272.35 248.423C272.959 248.423 273.453 248.916 273.453 249.525Z" fill="black"/>
<path d="M281.172 238.499C281.172 239.108 280.678 239.602 280.069 239.602C279.46 239.602 278.966 239.108 278.966 238.499C278.966 237.89 279.46 237.396 280.069 237.396C280.678 237.396 281.172 237.89 281.172 238.499Z" fill="black"/>
<path d="M183.037 259.449C183.037 260.058 182.544 260.552 181.935 260.552C181.326 260.552 180.832 260.058 180.832 259.449C180.832 258.84 181.326 258.346 181.935 258.346C182.544 258.346 183.037 258.84 183.037 259.449Z" fill="black"/>
<path d="M183.037 271.578C183.037 272.187 182.544 272.681 181.935 272.681C181.326 272.681 180.832 272.187 180.832 271.578C180.832 270.969 181.326 270.475 181.935 270.475C182.544 270.475 183.037 270.969 183.037 271.578Z" fill="black"/>
<path d="M206.193 255.038C206.193 255.647 205.699 256.141 205.09 256.141C204.481 256.141 203.987 255.647 203.987 255.038C203.987 254.429 204.481 253.936 205.09 253.936C205.699 253.936 206.193 254.429 206.193 255.038Z" fill="black"/>
<path d="M206.193 235.191C206.193 235.8 205.699 236.294 205.09 236.294C204.481 236.294 203.987 235.8 203.987 235.191C203.987 234.582 204.481 234.088 205.09 234.088C205.699 234.088 206.193 234.582 206.193 235.191Z" fill="black"/>
<path d="M219.424 250.628C219.424 251.237 218.93 251.731 218.322 251.731C217.713 251.731 217.219 251.237 217.219 250.628C217.219 250.019 217.713 249.525 218.322 249.525C218.93 249.525 219.424 250.019 219.424 250.628Z" fill="black"/>
<path d="M232.656 244.012C232.656 244.621 232.162 245.115 231.553 245.115C230.944 245.115 230.45 244.621 230.45 244.012C230.45 243.403 230.944 242.909 231.553 242.909C232.162 242.909 232.656 243.403 232.656 244.012Z" fill="black"/>
<path d="M246.99 244.012C246.99 244.621 246.496 245.115 245.887 245.115C245.278 245.115 244.785 244.621 244.785 244.012C244.785 243.403 245.278 242.909 245.887 242.909C246.496 242.909 246.99 243.403 246.99 244.012Z" fill="black"/>
<path d="M261.324 244.012C261.324 244.621 260.83 245.115 260.222 245.115C259.613 245.115 259.119 244.621 259.119 244.012C259.119 243.403 259.613 242.909 260.222 242.909C260.83 242.909 261.324 243.403 261.324 244.012Z" fill="black"/>
<path d="M289.993 244.012C289.993 244.621 289.499 245.115 288.89 245.115C288.281 245.115 287.787 244.621 287.787 244.012C287.787 243.403 288.281 242.909 288.89 242.909C289.499 242.909 289.993 243.403 289.993 244.012Z" fill="black"/>
<path d="M203.987 288.117C203.987 288.726 203.494 289.22 202.885 289.22C202.276 289.22 201.782 288.726 201.782 288.117C201.782 287.508 202.276 287.015 202.885 287.015C203.494 287.015 203.987 287.508 203.987 288.117Z" fill="black"/>
<path d="M216.116 281.502C216.116 282.111 215.623 282.604 215.014 282.604C214.405 282.604 213.911 282.111 213.911 281.502C213.911 280.893 214.405 280.399 215.014 280.399C215.623 280.399 216.116 280.893 216.116 281.502Z" fill="black"/>
<path d="M211.706 272.681C211.706 273.29 211.212 273.783 210.603 273.783C209.994 273.783 209.5 273.29 209.5 272.681C209.5 272.072 209.994 271.578 210.603 271.578C211.212 271.578 211.706 272.072 211.706 272.681Z" fill="black"/>
<path d="M238.169 262.757C238.169 263.366 237.675 263.859 237.066 263.859C236.457 263.859 235.964 263.366 235.964 262.757C235.964 262.148 236.457 261.654 237.066 261.654C237.675 261.654 238.169 262.148 238.169 262.757Z" fill="black"/>
<path d="M184.14 242.909C184.14 243.518 183.646 244.012 183.037 244.012C182.428 244.012 181.935 243.518 181.935 242.909C181.935 242.301 182.428 241.807 183.037 241.807C183.646 241.807 184.14 242.301 184.14 242.909Z" fill="black"/>
<path d="M224.937 260.552C224.937 261.161 224.444 261.654 223.835 261.654C223.226 261.654 222.732 261.161 222.732 260.552C222.732 259.943 223.226 259.449 223.835 259.449C224.444 259.449 224.937 259.943 224.937 260.552Z" fill="black"/>
<path d="M224.937 240.704C224.937 241.313 224.444 241.807 223.835 241.807C223.226 241.807 222.732 241.313 222.732 240.704C222.732 240.095 223.226 239.602 223.835 239.602C224.444 239.602 224.937 240.095 224.937 240.704Z" fill="black"/>
<path d="M263.529 256.141C263.529 256.75 263.036 257.244 262.427 257.244C261.818 257.244 261.324 256.75 261.324 256.141C261.324 255.532 261.818 255.038 262.427 255.038C263.036 255.038 263.529 255.532 263.529 256.141Z" fill="black"/>
<path d="M263.529 236.294C263.529 236.903 263.036 237.396 262.427 237.396C261.818 237.396 261.324 236.903 261.324 236.294C261.324 235.685 261.818 235.191 262.427 235.191C263.036 235.191 263.529 235.685 263.529 236.294Z" fill="black"/>
<path d="M271.248 238.499C271.248 239.108 270.754 239.602 270.145 239.602C269.536 239.602 269.043 239.108 269.043 238.499C269.043 237.89 269.536 237.396 270.145 237.396C270.754 237.396 271.248 237.89 271.248 238.499Z" fill="black"/>
<path d="M287.787 228.575C287.787 229.184 287.294 229.678 286.685 229.678C286.076 229.678 285.582 229.184 285.582 228.575C285.582 227.966 286.076 227.473 286.685 227.473C287.294 227.473 287.787 227.966 287.787 228.575Z" fill="black"/>
<path d="M170.908 280.399C170.908 281.008 170.415 281.502 169.806 281.502C169.197 281.502 168.703 281.008 168.703 280.399C168.703 279.79 169.197 279.296 169.806 279.296C170.415 279.296 170.908 279.79 170.908 280.399Z" stroke="black" stroke-width="1.10263"/>
<path d="M228.245 288.117C228.245 288.726 227.752 289.22 227.143 289.22C226.534 289.22 226.04 288.726 226.04 288.117C226.04 287.508 226.534 287.015 227.143 287.015C227.752 287.015 228.245 287.508 228.245 288.117Z" stroke="black" stroke-width="1.10263"/>
<path d="M223.835 295.836C223.835 296.445 223.341 296.938 222.732 296.938C222.123 296.938 221.629 296.445 221.629 295.836C221.629 295.227 222.123 294.733 222.732 294.733C223.341 294.733 223.835 295.227 223.835 295.836Z" stroke="black" stroke-width="1.10263"/>
<path d="M245.887 293.631C245.887 294.24 245.394 294.733 244.785 294.733C244.176 294.733 243.682 294.24 243.682 293.631C243.682 293.022 244.176 292.528 244.785 292.528C245.394 292.528 245.887 293.022 245.887 293.631Z" stroke="black" stroke-width="1.10263"/>
<path d="M246.99 282.604C246.99 283.213 246.496 283.707 245.887 283.707C245.278 283.707 244.785 283.213 244.785 282.604C244.785 281.995 245.278 281.502 245.887 281.502C246.496 281.502 246.99 281.995 246.99 282.604Z" stroke="black" stroke-width="1.10263"/>
<path d="M269.043 288.117C269.043 288.726 268.549 289.22 267.94 289.22C267.331 289.22 266.837 288.726 266.837 288.117C266.837 287.508 267.331 287.015 267.94 287.015C268.549 287.015 269.043 287.508 269.043 288.117Z" stroke="black" stroke-width="1.10263"/>
<path d="M280.069 272.681C280.069 273.29 279.575 273.783 278.966 273.783C278.357 273.783 277.864 273.29 277.864 272.681C277.864 272.072 278.357 271.578 278.966 271.578C279.575 271.578 280.069 272.072 280.069 272.681Z" stroke="black" stroke-width="1.10263"/>
<path d="M159.882 257.244C159.882 257.853 159.388 258.346 158.779 258.346C158.17 258.346 157.677 257.853 157.677 257.244C157.677 256.635 158.17 256.141 158.779 256.141C159.388 256.141 159.882 256.635 159.882 257.244Z" stroke="black" stroke-width="1.10263"/>
<path d="M196.269 274.886C196.269 275.495 195.775 275.988 195.166 275.988C194.557 275.988 194.064 275.495 194.064 274.886C194.064 274.277 194.557 273.783 195.166 273.783C195.775 273.783 196.269 274.277 196.269 274.886Z" stroke="black" stroke-width="1.10263"/>
<path d="M192.961 296.938C192.961 297.547 192.467 298.041 191.858 298.041C191.249 298.041 190.756 297.547 190.756 296.938C190.756 296.329 191.249 295.836 191.858 295.836C192.467 295.836 192.961 296.329 192.961 296.938Z" stroke="black" stroke-width="1.10263"/>
<path d="M212.808 301.349C212.808 301.958 212.315 302.452 211.706 302.452C211.097 302.452 210.603 301.958 210.603 301.349C210.603 300.74 211.097 300.246 211.706 300.246C212.315 300.246 212.808 300.74 212.808 301.349Z" stroke="black" stroke-width="1.10263"/>
<path d="M250.298 272.681C250.298 273.29 249.804 273.783 249.195 273.783C248.586 273.783 248.093 273.29 248.093 272.681C248.093 272.072 248.586 271.578 249.195 271.578C249.804 271.578 250.298 272.072 250.298 272.681Z" stroke="black" stroke-width="1.10263"/>
<path d="M265.735 277.091C265.735 277.7 265.241 278.194 264.632 278.194C264.023 278.194 263.529 277.7 263.529 277.091C263.529 276.482 264.023 275.988 264.632 275.988C265.241 275.988 265.735 276.482 265.735 277.091Z" stroke="black" stroke-width="1.10263"/>
<path d="M256.914 295.836C256.914 296.445 256.42 296.938 255.811 296.938C255.202 296.938 254.708 296.445 254.708 295.836C254.708 295.227 255.202 294.733 255.811 294.733C256.42 294.733 256.914 295.227 256.914 295.836Z" stroke="black" stroke-width="1.10263"/>
<path d="M272.35 261.654C272.35 262.263 271.857 262.757 271.248 262.757C270.639 262.757 270.145 262.263 270.145 261.654C270.145 261.045 270.639 260.552 271.248 260.552C271.857 260.552 272.35 261.045 272.35 261.654Z" stroke="black" stroke-width="1.10263"/>
<path d="M169.806 263.859C169.806 264.468 169.312 264.962 168.703 264.962C168.094 264.962 167.6 264.468 167.6 263.859C167.6 263.251 168.094 262.757 168.703 262.757C169.312 262.757 169.806 263.251 169.806 263.859Z" stroke="black" stroke-width="1.10263"/>
<path d="M196.269 263.859C196.269 264.468 195.775 264.962 195.166 264.962C194.557 264.962 194.064 264.468 194.064 263.859C194.064 263.251 194.557 262.757 195.166 262.757C195.775 262.757 196.269 263.251 196.269 263.859Z" stroke="black" stroke-width="1.10263"/>
<path d="M196.269 244.012C196.269 244.621 195.775 245.115 195.166 245.115C194.557 245.115 194.064 244.621 194.064 244.012C194.064 243.403 194.557 242.909 195.166 242.909C195.775 242.909 196.269 243.403 196.269 244.012Z" stroke="black" stroke-width="1.10263"/>
<path d="M200.679 303.554C200.679 304.163 200.186 304.657 199.577 304.657C198.968 304.657 198.474 304.163 198.474 303.554C198.474 302.945 198.968 302.452 199.577 302.452C200.186 302.452 200.679 302.945 200.679 303.554Z" stroke="black" stroke-width="1.10263"/>
<path d="M230.45 303.554C230.45 304.163 229.957 304.657 229.348 304.657C228.739 304.657 228.245 304.163 228.245 303.554C228.245 302.945 228.739 302.452 229.348 302.452C229.957 302.452 230.45 302.945 230.45 303.554Z" stroke="black" stroke-width="1.10263"/>
<path d="M242.579 303.554C242.579 304.163 242.086 304.657 241.477 304.657C240.868 304.657 240.374 304.163 240.374 303.554C240.374 302.945 240.868 302.452 241.477 302.452C242.086 302.452 242.579 302.945 242.579 303.554Z" stroke="black" stroke-width="1.10263"/>
<path d="M261.324 263.859C261.324 264.468 260.83 264.962 260.222 264.962C259.613 264.962 259.119 264.468 259.119 263.859C259.119 263.251 259.613 262.757 260.222 262.757C260.83 262.757 261.324 263.251 261.324 263.859Z" stroke="black" stroke-width="1.10263"/>
<path d="M261.324 244.012C261.324 244.621 260.83 245.115 260.222 245.115C259.613 245.115 259.119 244.621 259.119 244.012C259.119 243.403 259.613 242.909 260.222 242.909C260.83 242.909 261.324 243.403 261.324 244.012Z" stroke="black" stroke-width="1.10263"/>
<path d="M283.377 258.346C283.377 258.955 282.883 259.449 282.274 259.449C281.665 259.449 281.172 258.955 281.172 258.346C281.172 257.737 281.665 257.244 282.274 257.244C282.883 257.244 283.377 257.737 283.377 258.346Z" stroke="black" stroke-width="1.10263"/>
<path d="M173.114 249.525C173.114 250.134 172.62 250.628 172.011 250.628C171.402 250.628 170.908 250.134 170.908 249.525C170.908 248.916 171.402 248.423 172.011 248.423C172.62 248.423 173.114 248.916 173.114 249.525Z" stroke="black" stroke-width="1.10263"/>
<path d="M184.14 288.117C184.14 288.726 183.646 289.22 183.037 289.22C182.428 289.22 181.935 288.726 181.935 288.117C181.935 287.508 182.428 287.015 183.037 287.015C183.646 287.015 184.14 287.508 184.14 288.117Z" stroke="black" stroke-width="1.10263"/>
<path d="M179.729 295.836C179.729 296.445 179.236 296.938 178.627 296.938C178.018 296.938 177.524 296.445 177.524 295.836C177.524 295.227 178.018 294.733 178.627 294.733C179.236 294.733 179.729 295.227 179.729 295.836Z" stroke="black" stroke-width="1.10263"/>
<path d="M223.835 273.783C223.835 274.392 223.341 274.886 222.732 274.886C222.123 274.886 221.629 274.392 221.629 273.783C221.629 273.174 222.123 272.681 222.732 272.681C223.341 272.681 223.835 273.174 223.835 273.783Z" stroke="black" stroke-width="1.10263"/>
<path d="M237.066 275.988C237.066 276.597 236.573 277.091 235.964 277.091C235.355 277.091 234.861 276.597 234.861 275.988C234.861 275.379 235.355 274.886 235.964 274.886C236.573 274.886 237.066 275.379 237.066 275.988Z" stroke="black" stroke-width="1.10263"/>
<path d="M221.629 309.067C221.629 309.676 221.136 310.17 220.527 310.17C219.918 310.17 219.424 309.676 219.424 309.067C219.424 308.458 219.918 307.965 220.527 307.965C221.136 307.965 221.629 308.458 221.629 309.067Z" stroke="black" stroke-width="1.10263"/>
<path d="M246.99 252.833C246.99 253.442 246.496 253.936 245.887 253.936C245.278 253.936 244.785 253.442 244.785 252.833C244.785 252.224 245.278 251.731 245.887 251.731C246.496 251.731 246.99 252.224 246.99 252.833Z" stroke="black" stroke-width="1.10263"/>
<path d="M246.99 232.986C246.99 233.595 246.496 234.088 245.887 234.088C245.278 234.088 244.785 233.595 244.785 232.986C244.785 232.377 245.278 231.883 245.887 231.883C246.496 231.883 246.99 232.377 246.99 232.986Z" stroke="black" stroke-width="1.10263"/>
<path d="M273.453 249.525C273.453 250.134 272.959 250.628 272.35 250.628C271.741 250.628 271.248 250.134 271.248 249.525C271.248 248.916 271.741 248.423 272.35 248.423C272.959 248.423 273.453 248.916 273.453 249.525Z" stroke="black" stroke-width="1.10263"/>
<path d="M281.172 238.499C281.172 239.108 280.678 239.602 280.069 239.602C279.46 239.602 278.966 239.108 278.966 238.499C278.966 237.89 279.46 237.396 280.069 237.396C280.678 237.396 281.172 237.89 281.172 238.499Z" stroke="black" stroke-width="1.10263"/>
<path d="M183.037 259.449C183.037 260.058 182.544 260.552 181.935 260.552C181.326 260.552 180.832 260.058 180.832 259.449C180.832 258.84 181.326 258.346 181.935 258.346C182.544 258.346 183.037 258.84 183.037 259.449Z" stroke="black" stroke-width="1.10263"/>
<path d="M183.037 271.578C183.037 272.187 182.544 272.681 181.935 272.681C181.326 272.681 180.832 272.187 180.832 271.578C180.832 270.969 181.326 270.475 181.935 270.475C182.544 270.475 183.037 270.969 183.037 271.578Z" stroke="black" stroke-width="1.10263"/>
<path d="M206.193 255.038C206.193 255.647 205.699 256.141 205.09 256.141C204.481 256.141 203.987 255.647 203.987 255.038C203.987 254.429 204.481 253.936 205.09 253.936C205.699 253.936 206.193 254.429 206.193 255.038Z" stroke="black" stroke-width="1.10263"/>
<path d="M206.193 235.191C206.193 235.8 205.699 236.294 205.09 236.294C204.481 236.294 203.987 235.8 203.987 235.191C203.987 234.582 204.481 234.088 205.09 234.088C205.699 234.088 206.193 234.582 206.193 235.191Z" stroke="black" stroke-width="1.10263"/>
<path d="M219.424 250.628C219.424 251.237 218.93 251.731 218.322 251.731C217.713 251.731 217.219 251.237 217.219 250.628C217.219 250.019 217.713 249.525 218.322 249.525C218.93 249.525 219.424 250.019 219.424 250.628Z" stroke="black" stroke-width="1.10263"/>
<path d="M232.656 244.012C232.656 244.621 232.162 245.115 231.553 245.115C230.944 245.115 230.45 244.621 230.45 244.012C230.45 243.403 230.944 242.909 231.553 242.909C232.162 242.909 232.656 243.403 232.656 244.012Z" stroke="black" stroke-width="1.10263"/>
<path d="M246.99 244.012C246.99 244.621 246.496 245.115 245.887 245.115C245.278 245.115 244.785 244.621 244.785 244.012C244.785 243.403 245.278 242.909 245.887 242.909C246.496 242.909 246.99 243.403 246.99 244.012Z" stroke="black" stroke-width="1.10263"/>
<path d="M261.324 244.012C261.324 244.621 260.83 245.115 260.222 245.115C259.613 245.115 259.119 244.621 259.119 244.012C259.119 243.403 259.613 242.909 260.222 242.909C260.83 242.909 261.324 243.403 261.324 244.012Z" stroke="black" stroke-width="1.10263"/>
<path d="M289.993 244.012C289.993 244.621 289.499 245.115 288.89 245.115C288.281 245.115 287.787 244.621 287.787 244.012C287.787 243.403 288.281 242.909 288.89 242.909C289.499 242.909 289.993 243.403 289.993 244.012Z" stroke="black" stroke-width="1.10263"/>
<path d="M203.987 288.117C203.987 288.726 203.494 289.22 202.885 289.22C202.276 289.22 201.782 288.726 201.782 288.117C201.782 287.508 202.276 287.015 202.885 287.015C203.494 287.015 203.987 287.508 203.987 288.117Z" stroke="black" stroke-width="1.10263"/>
<path d="M216.116 281.502C216.116 282.111 215.623 282.604 215.014 282.604C214.405 282.604 213.911 282.111 213.911 281.502C213.911 280.893 214.405 280.399 215.014 280.399C215.623 280.399 216.116 280.893 216.116 281.502Z" stroke="black" stroke-width="1.10263"/>
<path d="M211.706 272.681C211.706 273.29 211.212 273.783 210.603 273.783C209.994 273.783 209.5 273.29 209.5 272.681C209.5 272.072 209.994 271.578 210.603 271.578C211.212 271.578 211.706 272.072 211.706 272.681Z" stroke="black" stroke-width="1.10263"/>
<path d="M238.169 262.757C238.169 263.366 237.675 263.859 237.066 263.859C236.457 263.859 235.964 263.366 235.964 262.757C235.964 262.148 236.457 261.654 237.066 261.654C237.675 261.654 238.169 262.148 238.169 262.757Z" stroke="black" stroke-width="1.10263"/>
<path d="M184.14 242.909C184.14 243.518 183.646 244.012 183.037 244.012C182.428 244.012 181.935 243.518 181.935 242.909C181.935 242.301 182.428 241.807 183.037 241.807C183.646 241.807 184.14 242.301 184.14 242.909Z" stroke="black" stroke-width="1.10263"/>
<path d="M224.937 260.552C224.937 261.161 224.444 261.654 223.835 261.654C223.226 261.654 222.732 261.161 222.732 260.552C222.732 259.943 223.226 259.449 223.835 259.449C224.444 259.449 224.937 259.943 224.937 260.552Z" stroke="black" stroke-width="1.10263"/>
<path d="M224.937 240.704C224.937 241.313 224.444 241.807 223.835 241.807C223.226 241.807 222.732 241.313 222.732 240.704C222.732 240.095 223.226 239.602 223.835 239.602C224.444 239.602 224.937 240.095 224.937 240.704Z" stroke="black" stroke-width="1.10263"/>
<path d="M263.529 256.141C263.529 256.75 263.036 257.244 262.427 257.244C261.818 257.244 261.324 256.75 261.324 256.141C261.324 255.532 261.818 255.038 262.427 255.038C263.036 255.038 263.529 255.532 263.529 256.141Z" stroke="black" stroke-width="1.10263"/>
<path d="M263.529 236.294C263.529 236.903 263.036 237.396 262.427 237.396C261.818 237.396 261.324 236.903 261.324 236.294C261.324 235.685 261.818 235.191 262.427 235.191C263.036 235.191 263.529 235.685 263.529 236.294Z" stroke="black" stroke-width="1.10263"/>
<path d="M271.248 238.499C271.248 239.108 270.754 239.602 270.145 239.602C269.536 239.602 269.043 239.108 269.043 238.499C269.043 237.89 269.536 237.396 270.145 237.396C270.754 237.396 271.248 237.89 271.248 238.499Z" stroke="black" stroke-width="1.10263"/>
<path d="M287.787 228.575C287.787 229.184 287.294 229.678 286.685 229.678C286.076 229.678 285.582 229.184 285.582 228.575C285.582 227.966 286.076 227.473 286.685 227.473C287.294 227.473 287.787 227.966 287.787 228.575Z" stroke="black" stroke-width="1.10263"/>
</g>
<rect x="191.029" y="243.098" width="77.1842" height="26.4632" rx="4.41053" transform="rotate(-4 191.029 243.098)" fill="black"/>
<path fill-rule="evenodd" clip-rule="evenodd" d="M261.127 238.197L197.927 242.616L199.956 250.34C200.762 253.407 203.631 255.47 206.794 255.26C203.632 255.492 201.078 257.934 200.707 261.084L199.773 269.015L262.973 264.596L260.944 256.872C260.138 253.804 257.268 251.741 254.105 251.951C257.267 251.72 259.821 249.278 260.192 246.127L261.127 238.197Z" fill="white"/>
<path d="M271.71 258.792L270.586 242.727C270.302 238.663 266.466 235.831 262.514 236.679C254.857 238.323 240.217 241.238 229.637 241.977C219.057 242.717 204.153 241.868 196.342 241.306C192.311 241.016 188.906 244.355 189.19 248.419L190.314 264.484C190.598 268.548 194.434 271.38 198.386 270.532C206.043 268.888 220.683 265.973 231.263 265.233C241.843 264.494 256.746 265.343 264.557 265.905C268.589 266.195 271.994 262.856 271.71 258.792Z" stroke="black" stroke-width="4.41053"/>
<path d="M162.087 163.741C168.886 166.498 185.352 167.049 196.82 147.202" stroke="black" stroke-width="4.41053" stroke-linecap="round"/>
<path d="M235.963 138.932C241.66 144.813 255.921 153.046 267.388 138.932" stroke="black" stroke-width="4.41053" stroke-linecap="round"/>
<path d="M219.424 95.9291C235.596 95.194 263.971 86.226 248.093 56.2344" stroke="black" stroke-width="4.41053"/>
<path d="M190.756 93.7235C206.928 92.9885 235.302 84.0204 219.424 54.0288" stroke="black" stroke-width="4.41053"/>
<path d="M151.061 105.852C167.233 105.117 195.607 96.1493 179.729 66.1577" stroke="black" stroke-width="4.41053"/>
<ellipse cx="192.218" cy="193.11" rx="9.92368" ry="14.8855" transform="rotate(-6.77646 192.218 193.11)" fill="black"/>
<ellipse cx="262.787" cy="182.084" rx="9.92368" ry="14.8855" transform="rotate(-6.27568 262.787 182.084)" fill="black"/>
<path d="M165.191 193.453L128.784 199.935" stroke="black" stroke-width="4.41053" stroke-linecap="round"/>
<path d="M166.762 170.18L206.724 164.973C210.347 164.501 213.728 167.046 214.276 170.659L219.856 207.476C220.404 211.089 217.911 214.4 214.288 214.872L178.581 219.525C175.248 219.96 172.067 217.833 171.185 214.582L161.35 178.319C160.313 174.494 162.842 170.691 166.762 170.18Z" stroke="black" stroke-width="4.41053"/>
<path d="M282.299 155.327L242.338 160.534C238.715 161.006 236.221 164.317 236.769 167.93L242.35 204.748C242.897 208.36 246.278 210.906 249.902 210.434L285.609 205.781C288.941 205.347 291.367 202.49 291.248 199.139L289.922 161.767C289.782 157.825 286.22 154.816 282.299 155.327Z" stroke="black" stroke-width="4.41053"/>
<path d="M216.901 188.193L240.118 184.769" stroke="black" stroke-width="4.41053"/>
<path d="M224.324 186.348C226.473 201.634 235.804 212.571 235.804 212.571C235.804 212.571 232.903 219.66 221.677 219.01" stroke="black" stroke-width="4.41053"/>
<path d="M137.277 198.667C134.708 197.821 131.935 197.371 129.096 197.371C117.525 197.371 108.146 204.538 109.248 217.77C110.397 231.553 118.628 236.515 130.198 236.515C131.486 236.515 132.746 236.401 133.969 236.185C135.304 235.949 136.595 235.589 137.829 235.119" stroke="black" stroke-width="8.82105"/>
<path d="M138.38 234.9C135.866 235.94 133.101 236.515 130.198 236.515C118.628 236.515 110.397 231.553 109.248 217.77C108.146 204.538 117.525 197.371 129.096 197.371C132.555 197.371 135.917 198.04 138.931 199.278L138.38 234.9Z" fill="#F9C9B6"/>
<path d="M133.969 206.744C129.559 204.723 119.856 203.657 116.327 215.565" stroke="black" stroke-width="4.41053"/>
<path d="M122.392 207.295C124.781 209.316 129.338 215.565 128.456 224.386" stroke="black" stroke-width="4.41053"/>
<path d="M356.915 422.308H55.5447C73.5173 389.955 99.0803 369.362 140.525 359.912C158.181 355.887 178.751 353.879 202.884 353.879C213.31 353.879 221.424 355.469 229.123 357.568C231.975 358.345 234.842 359.216 237.774 360.108C242.629 361.583 247.664 363.113 253.112 364.364L253.266 364.399L253.424 364.412C304.283 368.607 334.781 391.198 356.915 422.308Z" fill="#F4D150" stroke="black" stroke-width="4.41053"/>
<path d="M127.828 362.304L137.92 340.696C138.161 340.18 138.76 339.935 139.297 340.125C181.116 354.928 219.16 353.885 254.416 344.071C254.86 343.948 255.334 344.111 255.606 344.483L270.968 365.491C271.39 366.068 271.175 366.882 270.509 367.144C233.453 381.695 163.919 379.221 128.362 363.763C127.798 363.518 127.567 362.862 127.828 362.304Z" fill="white" stroke="black" stroke-width="4.41053"/>
</g>
<defs>
<clipPath id="clip0_157_618">
<rect width="220.526" height="352.842" fill="white" transform="translate(99.2373 47.4131)"/>
</clipPath>
</defs>
</svg>
