<svg width="185" height="27" viewBox="0 0 185 27" fill="none" xmlns="http://www.w3.org/2000/svg">
<path d="M15.28 0.799998V4.76H4.66V11.816H14.92V15.776H4.66V26H0.52V0.799998H15.28ZM40.2128 22.688C37.6928 25.208 34.6088 26.468 30.9608 26.468C27.3128 26.468 24.2168 25.208 21.6728 22.688C19.1528 20.144 17.8928 17.048 17.8928 13.4C17.8928 9.752 19.1528 6.668 21.6728 4.148C24.2168 1.604 27.3128 0.331998 30.9608 0.331998C34.6088 0.331998 37.6928 1.604 40.2128 4.148C42.7568 6.668 44.0288 9.752 44.0288 13.4C44.0288 17.048 42.7568 20.144 40.2128 22.688ZM24.5888 19.88C26.3408 21.584 28.4648 22.436 30.9608 22.436C33.4808 22.436 35.5928 21.584 37.2968 19.88C39.0248 18.152 39.8888 15.992 39.8888 13.4C39.8888 10.808 39.0248 8.66 37.2968 6.956C35.5928 5.228 33.4808 4.364 30.9608 4.364C28.4408 4.364 26.3168 5.228 24.5888 6.956C22.8848 8.66 22.0328 10.808 22.0328 13.4C22.0328 15.968 22.8848 18.128 24.5888 19.88ZM66.7052 26H62.1692L56.8412 16.82H51.9452V26H47.8052V0.799998H57.8852C60.1412 0.799998 62.0492 1.592 63.6092 3.176C65.1932 4.712 65.9852 6.62 65.9852 8.9C65.9852 10.508 65.5172 11.984 64.5812 13.328C63.6692 14.648 62.4692 15.608 60.9812 16.208L66.7052 26ZM57.8852 4.688H51.9452V13.112H57.8852C58.9892 13.112 59.9252 12.704 60.6932 11.888C61.4612 11.072 61.8452 10.076 61.8452 8.9C61.8452 7.724 61.4612 6.728 60.6932 5.912C59.9252 5.096 58.9892 4.688 57.8852 4.688ZM74.0233 15.236V22.04H85.1833V26H69.8833V0.799998H85.0033V4.76H74.0233V11.312H84.1033V15.236H74.0233ZM99.0891 26H94.3011L87.1731 0.799998H91.5291L96.8211 20.492L102.545 0.799998H106.361L112.049 20.492L117.341 0.799998H121.697L114.569 26H109.781L104.453 7.604L99.0891 26ZM144.377 26H139.913L138.149 20.924H127.421L125.657 26H121.157L130.301 0.799998H135.269L144.377 26ZM132.785 5.66L128.789 17.036H136.781L132.785 5.66ZM165.986 26H161.45L156.122 16.82H151.226V26H147.086V0.799998H157.166C159.422 0.799998 161.33 1.592 162.89 3.176C164.474 4.712 165.266 6.62 165.266 8.9C165.266 10.508 164.798 11.984 163.862 13.328C162.95 14.648 161.75 15.608 160.262 16.208L165.986 26ZM157.166 4.688H151.226V13.112H157.166C158.27 13.112 159.206 12.704 159.974 11.888C160.742 11.072 161.126 10.076 161.126 8.9C161.126 7.724 160.742 6.728 159.974 5.912C159.206 5.096 158.27 4.688 157.166 4.688ZM173.305 15.236V22.04H184.465V26H169.165V0.799998H184.285V4.76H173.305V11.312H183.385V15.236H173.305Z" fill="url(#paint0_linear_20_168)"/>
<defs>
<linearGradient id="paint0_linear_20_168" x1="-2" y1="16" x2="186" y2="16" gradientUnits="userSpaceOnUse">
<stop stop-color="#1F96D9"/>
<stop offset="1" stop-color="#004064"/>
</linearGradient>
</defs>
</svg>
