<svg width="26" height="26" viewBox="0 0 26 26" fill="none" xmlns="http://www.w3.org/2000/svg">
<path fill-rule="evenodd" clip-rule="evenodd" d="M10.8335 6.77091C10.8335 6.02303 11.4398 5.41675 12.1877 5.41675C12.9355 5.41675 13.5418 6.02303 13.5418 6.77091C13.5418 7.5188 12.9355 8.12508 12.1877 8.12508C11.4398 8.12508 10.8335 7.5188 10.8335 6.77091ZM10.8335 12.1876C10.8335 11.4397 11.4398 10.8334 12.1877 10.8334C12.9355 10.8334 13.5418 11.4397 13.5418 12.1876C13.5418 12.9355 12.9355 13.5417 12.1877 13.5417C11.4398 13.5417 10.8335 12.9355 10.8335 12.1876ZM12.1877 16.2501C11.4398 16.2501 10.8335 16.8564 10.8335 17.6042C10.8335 18.3521 11.4398 18.9584 12.1877 18.9584C12.9355 18.9584 13.5418 18.3521 13.5418 17.6042C13.5418 16.8564 12.9355 16.2501 12.1877 16.2501Z" fill="#28303F"/>
</svg>
