<svg width="17" height="18" viewBox="0 0 17 18" fill="none" xmlns="http://www.w3.org/2000/svg">
<path d="M16.0203 12.1849L15.4362 11.8272L15.4362 11.8272L16.0203 12.1849ZM15.2031 13.5193L15.7872 13.877L15.7872 13.877L15.2031 13.5193ZM1.04979 5.81486L0.465751 5.45723L0.465751 5.45723L1.04979 5.81486ZM1.86694 4.48041L2.45098 4.83804L2.45098 4.83804L1.86694 4.48041ZM4.09941 3.9164L4.42684 3.31491L4.42684 3.31491L4.09941 3.9164ZM1.64798 7.91976L1.32055 8.52126L1.32055 8.52126L1.64798 7.91976ZM12.9706 14.0833L12.6432 14.6848L12.6432 14.6848L12.9706 14.0833ZM15.4221 10.08L15.0946 10.6815L15.0946 10.6815L15.4221 10.08ZM1.86694 13.5193L1.28289 13.877L1.28289 13.877L1.86694 13.5193ZM1.04979 12.1849L1.63383 11.8273L1.63383 11.8273L1.04979 12.1849ZM15.2031 4.48042L15.7872 4.12279L15.7872 4.12279L15.2031 4.48042ZM16.0203 5.81487L15.4362 6.17251L15.4362 6.17251L16.0203 5.81487ZM15.4221 7.91977L15.7495 8.52127L15.7495 8.52127L15.4221 7.91977ZM12.9706 3.91642L13.2981 4.51791L13.2981 4.51791L12.9706 3.91642ZM1.64798 10.08L1.97541 10.6815L1.97541 10.6815L1.64798 10.08ZM4.09941 14.0833L3.77199 13.4818L3.77198 13.4818L4.09941 14.0833ZM12.8838 3.9637L12.5564 3.36221L12.5564 3.36221L12.8838 3.9637ZM4.18629 3.9637L3.85886 4.56519L3.85886 4.56519L4.18629 3.9637ZM12.8838 14.036L13.2112 13.4345L13.2112 13.4345L12.8838 14.036ZM4.18629 14.0361L4.51371 14.6375L4.51372 14.6375L4.18629 14.0361ZM7.71789 1.98025H9.35217V0.610569H7.71789V1.98025ZM9.35217 16.0195H7.71789V17.3892H9.35217V16.0195ZM7.71789 16.0195C7.155 16.0195 6.76844 15.5988 6.76844 15.1634H5.39876C5.39876 16.4301 6.47559 17.3892 7.71789 17.3892V16.0195ZM10.3016 15.1634C10.3016 15.5988 9.91506 16.0195 9.35217 16.0195V17.3892C10.5945 17.3892 11.6713 16.4301 11.6713 15.1634H10.3016ZM9.35217 1.98025C9.91506 1.98025 10.3016 2.40093 10.3016 2.8363H11.6713C11.6713 1.56966 10.5945 0.610569 9.35217 0.610569V1.98025ZM7.71789 0.610569C6.47559 0.610569 5.39876 1.56966 5.39876 2.8363H6.76844C6.76844 2.40093 7.155 1.98025 7.71789 1.98025V0.610569ZM15.4362 11.8272L14.6191 13.1617L15.7872 13.877L16.6043 12.5425L15.4362 11.8272ZM1.63384 6.1725L2.45098 4.83804L1.28289 4.12278L0.465751 5.45723L1.63384 6.1725ZM2.45098 4.83804C2.70272 4.42694 3.29504 4.25828 3.77198 4.5179L4.42684 3.31491C3.34045 2.72352 1.93375 3.05989 1.28289 4.12278L2.45098 4.83804ZM1.97541 7.31826C1.51984 7.07027 1.39783 6.5579 1.63384 6.1725L0.465751 5.45723C-0.20084 6.54582 0.212795 7.91824 1.32055 8.52126L1.97541 7.31826ZM14.6191 13.1617C14.3673 13.5728 13.775 13.7415 13.2981 13.4818L12.6432 14.6848C13.7296 15.2762 15.1363 14.9398 15.7872 13.877L14.6191 13.1617ZM16.6043 12.5425C17.2709 11.4539 16.8573 10.0815 15.7495 9.47848L15.0946 10.6815C15.5502 10.9295 15.6722 11.4418 15.4362 11.8272L16.6043 12.5425ZM2.45098 13.1617L1.63383 11.8273L0.46575 12.5425L1.28289 13.877L2.45098 13.1617ZM14.6191 4.83806L15.4362 6.17251L16.6043 5.45724L15.7872 4.12279L14.6191 4.83806ZM15.4362 6.17251C15.6722 6.55791 15.5502 7.07028 15.0946 7.31828L15.7495 8.52127C16.8573 7.91825 17.2709 6.54583 16.6043 5.45724L15.4362 6.17251ZM13.2981 4.51791C13.775 4.25829 14.3673 4.42695 14.6191 4.83806L15.7872 4.12279C15.1363 3.0599 13.7296 2.72353 12.6432 3.31492L13.2981 4.51791ZM1.63383 11.8273C1.39783 11.4418 1.51984 10.9295 1.97541 10.6815L1.32055 9.47849C0.212794 10.0815 -0.200841 11.4539 0.46575 12.5425L1.63383 11.8273ZM1.28289 13.877C1.93375 14.9399 3.34045 15.2762 4.42684 14.6848L3.77198 13.4818C3.29504 13.7415 2.70272 13.5728 2.45098 13.1617L1.28289 13.877ZM13.2112 4.5652L13.2981 4.51791L12.6432 3.31492L12.5564 3.36221L13.2112 4.5652ZM3.77198 4.5179L3.85886 4.56519L4.51372 3.3622L4.42684 3.31491L3.77198 4.5179ZM13.2981 13.4818L13.2112 13.4345L12.5564 14.6375L12.6432 14.6848L13.2981 13.4818ZM3.85886 13.4346L3.77199 13.4818L4.42684 14.6848L4.51371 14.6375L3.85886 13.4346ZM1.32055 8.52126C1.69975 8.72767 1.69975 9.27207 1.32055 9.47849L1.97541 10.6815C3.3077 9.95624 3.30771 8.04351 1.97541 7.31826L1.32055 8.52126ZM4.51372 14.6375C4.91271 14.4204 5.39876 14.7092 5.39876 15.1634H6.76844C6.76844 13.67 5.17054 12.7205 3.85886 13.4346L4.51372 14.6375ZM11.6713 15.1634C11.6713 14.7092 12.1574 14.4203 12.5564 14.6375L13.2112 13.4345C11.8995 12.7205 10.3016 13.67 10.3016 15.1634H11.6713ZM15.7495 9.47848C15.3703 9.27207 15.3703 8.72768 15.7495 8.52127L15.0946 7.31828C13.7624 8.04352 13.7624 9.95623 15.0946 10.6815L15.7495 9.47848ZM3.85886 4.56519C5.17054 5.27922 6.76844 4.32974 6.76844 2.8363H5.39876C5.39876 3.29058 4.91271 3.57939 4.51372 3.3622L3.85886 4.56519ZM12.5564 3.36221C12.1574 3.5794 11.6713 3.29058 11.6713 2.8363H10.3016C10.3016 4.32974 11.8995 5.27923 13.2112 4.5652L12.5564 3.36221ZM10.4184 8.99987C10.4184 10.04 9.57516 10.8832 8.53504 10.8832V12.2529C10.3316 12.2529 11.788 10.7965 11.788 8.99987H10.4184ZM8.53504 10.8832C7.49491 10.8832 6.65172 10.04 6.65172 8.99987H5.28204C5.28204 10.7965 6.73846 12.2529 8.53504 12.2529V10.8832ZM6.65172 8.99987C6.65172 7.95975 7.49491 7.11656 8.53504 7.11656V5.74688C6.73846 5.74688 5.28204 7.20329 5.28204 8.99987H6.65172ZM8.53504 7.11656C9.57516 7.11656 10.4184 7.95975 10.4184 8.99987H11.788C11.788 7.20329 10.3316 5.74688 8.53504 5.74688V7.11656Z" fill="black"/>
</svg>
