<svg width="40" height="40" viewBox="0 0 40 40" fill="none" xmlns="http://www.w3.org/2000/svg">
<path d="M23.6667 12.6665C23.6667 8.61642 26.95 5.33317 31.0001 5.33317C35.0502 5.33317 38.3334 8.61642 38.3334 12.6665C38.3334 16.7166 35.0502 19.9998 31.0001 19.9998H1.66675M7.16675 7.1665C7.16675 4.12894 9.62918 1.6665 12.6667 1.6665C15.7043 1.6665 18.1667 4.12894 18.1667 7.1665C18.1667 10.2041 15.7043 12.6665 12.6667 12.6665H1.66675M16.3334 32.8332C16.3334 35.8707 18.7958 38.3332 21.8334 38.3332C24.871 38.3332 27.3334 35.8707 27.3334 32.8332C27.3334 29.7956 24.871 27.3332 21.8334 27.3332H1.66675" stroke="#0067A1" stroke-width="2.75" stroke-linecap="round" stroke-linejoin="round"/>
</svg>
